<svg clip-rule="evenodd" fill-rule="evenodd" stroke-linejoin="round" viewBox="0 0 64 64" xmlns="http://www.w3.org/2000/svg"><g fill="none"><path d="m12 18h15l4 4h21v21c0 3-2 5-5 5h-30c-3 0-5-2-5-5z" stroke="#03a9f4" stroke-width="3"/><g stroke-width="2.8"><g stroke="#7dd3fc" stroke-linecap="round" stroke-linejoin="miter"><path d="m29 33h8" transform="matrix(.5 0 0 1 16.5 9)"/><path d="m29 33h8" transform="matrix(.5 0 0 1 16.5 -2)"/><path d="m29 33h8" transform="matrix(.5 0 0 1 16.5 -1)"/><path d="m29 33h8" transform="matrix(.5 0 0 1 16.5 0)"/><path d="m29 33h8" transform="matrix(.5 0 0 1 16.5 1)"/><path d="m29 33h8" transform="matrix(.5 0 0 1 16.5 2)"/></g><path d="m29 27h8v5l-2 2 2 2v5h-8v-5l2-2-2-2z" stroke="#d7edf8" transform="translate(0 1)"/></g></g></svg>