<?xml version="1.0" standalone="no"?>
<!DOCTYPE svg PUBLIC "-//W3C//DTD SVG 20010904//EN"
 "http://www.w3.org/TR/2001/REC-SVG-20010904/DTD/svg10.dtd">
<svg version="1.0" xmlns="http://www.w3.org/2000/svg"
 width="200.000000pt" height="200.000000pt" viewBox="0 0 200.000000 200.000000"
 preserveAspectRatio="xMidYMid meet">

<g transform="translate(0.000000,200.000000) scale(0.100000,-0.100000)"
fill="#000000" stroke="none">
<path d="M0 1000 l0 -1000 1000 0 1000 0 0 1000 0 1000 -1000 0 -1000 0 0
-1000z m1038 790 c30 -19 52 -54 52 -84 0 -7 -11 -30 -25 -50 -24 -35 -25 -44
-25 -176 l0 -140 -45 0 -45 0 0 140 c0 135 -1 140 -25 164 -27 27 -35 86 -12
86 9 0 9 2 0 8 -27 17 26 61 87 71 3 1 20 -8 38 -19z m-704 -156 c10 -4 16
-18 16 -35 0 -28 -1 -29 -54 -29 -67 0 -81 -15 -80 -83 1 -66 29 -92 91 -83
42 6 43 5 43 -24 0 -37 -13 -45 -81 -44 -101 1 -149 52 -149 156 0 65 26 113
73 133 33 15 113 20 141 9z m264 -57 l3 -58 40 3 c21 1 40 4 40 7 1 4 2 29 4
56 l2 50 43 0 44 0 0 -148 1 -148 -45 3 -45 3 1 58 1 57 -44 0 -43 0 0 -60 0
-60 -45 0 -45 0 0 143 c0 79 3 147 7 151 4 4 23 6 43 4 l35 -3 3 -58z m743
-17 c20 -72 39 -103 39 -66 0 8 9 44 21 80 l20 67 56 -3 56 -3 -1 -90 c0 -49
-1 -116 -1 -147 l-1 -58 -40 0 -39 0 -3 83 -3 82 -25 -80 c-24 -76 -27 -80
-57 -83 -32 -3 -32 -2 -57 75 l-24 78 -3 -60 c-1 -33 -2 -68 -1 -77 1 -14 -6
-18 -38 -18 l-40 0 0 143 c0 79 3 147 7 150 3 4 30 7 58 7 l52 0 24 -80z m567
48 l-3 -33 -63 -3 c-59 -3 -63 -5 -60 -25 3 -19 10 -22 51 -25 45 -3 47 -5 47
-33 0 -28 -1 -29 -51 -29 -49 0 -50 -1 -47 -27 3 -27 6 -28 66 -31 62 -3 62
-3 62 -33 l0 -30 -107 3 c-60 2 -107 6 -105 11 1 4 2 69 2 145 l0 138 106 3
105 2 -3 -33z m-1482 -348 c23 0 24 -2 24 -90 l0 -89 78 -3 77 -3 3 -94 c2
-69 -1 -97 -10 -103 -7 -4 -39 -8 -70 -8 l-58 0 0 -179 0 -178 -86 -7 c-60 -5
-90 -4 -100 5 -11 9 -14 47 -14 185 l0 174 -42 1 c-41 1 -114 15 -92 18 13 1
13 151 0 151 -5 0 -1 9 9 20 12 13 31 20 54 20 80 0 81 2 81 103 l0 90 61 -7
c34 -3 73 -6 85 -6z m622 0 l32 0 0 -90 0 -89 73 -3 72 -3 3 -94 c2 -69 -1
-97 -10 -103 -7 -4 -39 -8 -70 -8 l-58 0 -2 -257 -3 -258 -97 -3 -98 -3 0 261
0 260 -34 0 c-18 0 -46 3 -62 6 l-29 6 0 86 c0 48 4 93 8 100 5 6 23 12 41 12
19 0 48 3 65 6 l31 7 0 90 0 90 53 -7 c28 -3 67 -6 85 -6z m591 4 l61 -7 0
-87 0 -87 40 -7 c21 -3 51 -11 65 -18 24 -11 25 -14 25 -115 0 -56 -1 -103 -2
-103 -2 0 -25 7 -52 15 -55 17 -172 20 -210 5 -14 -5 -33 -21 -42 -35 -16 -25
-16 -27 3 -53 15 -20 49 -37 134 -67 63 -22 126 -49 141 -58 48 -33 63 -80 63
-202 0 -99 -3 -115 -25 -155 -19 -34 -39 -51 -84 -75 -55 -28 -67 -30 -166
-30 -80 0 -115 4 -146 18 l-40 18 1 97 0 98 90 -13 c120 -17 191 -6 221 36 7
8 9 21 7 29 -8 19 -74 50 -135 63 -72 15 -145 56 -166 93 -15 26 -18 54 -16
179 0 81 -2 145 -5 141 -3 -3 -9 -60 -12 -127 l-5 -122 -2 113 c-2 97 1 119
19 155 28 56 46 75 92 98 l37 19 0 95 c0 109 -9 101 109 89z m-892 -336 c-2
-29 -3 -8 -3 47 0 55 1 79 3 53 2 -26 2 -71 0 -100z"/>
<path d="M951 1754 c-27 -34 -26 -55 2 -82 29 -27 51 -28 77 -2 37 37 20 92
-32 104 -21 5 -31 1 -47 -20z"/>
</g>
</svg>
